<svg aria-hidden="true" style="position: absolute; width: 0; height: 0; overflow: hidden;" version="1.1"
    xmlns="http://www.w3.org/2000/svg"
    xmlns:xlink="http://www.w3.org/1999/xlink">
    <defs>
        <symbol id="icon-element" viewBox="0 0 37 32">
            <path d="M1.455 2.901c0.803 0 1.455-0.649 1.455-1.45s-0.651-1.45-1.455-1.45c-0.803 0-1.455 0.649-1.455 1.45s0.651 1.45 1.455 1.45z"></path>
            <path d="M9.881 2.901c0.803 0 1.455-0.649 1.455-1.45s-0.651-1.45-1.455-1.45c-0.803 0-1.455 0.649-1.455 1.45s0.651 1.45 1.455 1.45z"></path>
            <path d="M18.307 2.901c0.803 0 1.455-0.649 1.455-1.45s-0.651-1.45-1.455-1.45c-0.803 0-1.455 0.649-1.455 1.45s0.651 1.45 1.455 1.45z"></path>
            <path d="M26.733 2.901c0.803 0 1.455-0.649 1.455-1.45s-0.651-1.45-1.455-1.45c-0.803 0-1.455 0.649-1.455 1.45s0.651 1.45 1.455 1.45z"></path>
            <path d="M35.159 2.901c0.803 0 1.455-0.649 1.455-1.45s-0.651-1.45-1.455-1.45c-0.804 0-1.455 0.649-1.455 1.45s0.651 1.45 1.455 1.45z"></path>
            <path d="M1.455 10.183c0.803 0 1.455-0.649 1.455-1.45s-0.651-1.45-1.455-1.45c-0.803 0-1.455 0.649-1.455 1.45s0.651 1.45 1.455 1.45z"></path>
            <path d="M9.881 10.183c0.803 0 1.455-0.649 1.455-1.45s-0.651-1.45-1.455-1.45c-0.803 0-1.455 0.649-1.455 1.45s0.651 1.45 1.455 1.45z"></path>
            <path d="M18.307 10.183c0.803 0 1.455-0.649 1.455-1.45s-0.651-1.45-1.455-1.45c-0.803 0-1.455 0.649-1.455 1.45s0.651 1.45 1.455 1.45z"></path>
            <path d="M26.733 10.183c0.803 0 1.455-0.649 1.455-1.45s-0.651-1.45-1.455-1.45c-0.803 0-1.455 0.649-1.455 1.45s0.651 1.45 1.455 1.45z"></path>
            <path d="M35.159 10.183c0.803 0 1.455-0.649 1.455-1.45s-0.651-1.45-1.455-1.45c-0.804 0-1.455 0.649-1.455 1.45s0.651 1.45 1.455 1.45z"></path>
            <path d="M1.455 17.45c0.803 0 1.455-0.649 1.455-1.45s-0.651-1.45-1.455-1.45c-0.803 0-1.455 0.649-1.455 1.45s0.651 1.45 1.455 1.45z"></path>
            <path d="M9.881 17.45c0.803 0 1.455-0.649 1.455-1.45s-0.651-1.45-1.455-1.45c-0.803 0-1.455 0.649-1.455 1.45s0.651 1.45 1.455 1.45z"></path>
            <path d="M18.307 17.45c0.803 0 1.455-0.649 1.455-1.45s-0.651-1.45-1.455-1.45c-0.803 0-1.455 0.649-1.455 1.45s0.651 1.45 1.455 1.45z"></path>
            <path d="M26.733 17.45c0.803 0 1.455-0.649 1.455-1.45s-0.651-1.45-1.455-1.45c-0.803 0-1.455 0.649-1.455 1.45s0.651 1.45 1.455 1.45z"></path>
            <path d="M35.159 17.45c0.803 0 1.455-0.649 1.455-1.45s-0.651-1.45-1.455-1.45c-0.804 0-1.455 0.649-1.455 1.45s0.651 1.45 1.455 1.45z"></path>
            <path d="M1.455 24.733c0.803 0 1.455-0.649 1.455-1.45s-0.651-1.45-1.455-1.45c-0.803 0-1.455 0.649-1.455 1.45s0.651 1.45 1.455 1.45z"></path>
            <path d="M9.881 24.733c0.803 0 1.455-0.649 1.455-1.45s-0.651-1.45-1.455-1.45c-0.803 0-1.455 0.649-1.455 1.45s0.651 1.45 1.455 1.45z"></path>
            <path d="M18.307 24.733c0.803 0 1.455-0.649 1.455-1.45s-0.651-1.45-1.455-1.45c-0.803 0-1.455 0.649-1.455 1.45s0.651 1.45 1.455 1.45z"></path>
            <path d="M26.733 24.733c0.803 0 1.455-0.649 1.455-1.45s-0.651-1.45-1.455-1.45c-0.803 0-1.455 0.649-1.455 1.45s0.651 1.45 1.455 1.45z"></path>
            <path d="M35.159 24.733c0.803 0 1.455-0.649 1.455-1.45s-0.651-1.45-1.455-1.45c-0.804 0-1.455 0.649-1.455 1.45s0.651 1.45 1.455 1.45z"></path>
            <path d="M1.455 32c0.803 0 1.455-0.649 1.455-1.45s-0.651-1.451-1.455-1.451-1.455 0.649-1.455 1.451c0 0.801 0.651 1.45 1.455 1.45z"></path>
            <path d="M9.881 32c0.803 0 1.455-0.649 1.455-1.45s-0.651-1.451-1.455-1.451-1.455 0.649-1.455 1.451c0 0.801 0.651 1.45 1.455 1.45z"></path>
            <path d="M18.307 32c0.803 0 1.455-0.649 1.455-1.45s-0.651-1.451-1.455-1.451-1.455 0.649-1.455 1.451c0 0.801 0.651 1.45 1.455 1.45z"></path>
            <path d="M26.733 32c0.803 0 1.455-0.649 1.455-1.45s-0.651-1.451-1.455-1.451-1.455 0.649-1.455 1.451c0 0.801 0.651 1.45 1.455 1.45z"></path>
            <path d="M35.159 32c0.803 0 1.455-0.649 1.455-1.45s-0.651-1.451-1.455-1.451c-0.804 0-1.455 0.649-1.455 1.451s0.651 1.45 1.455 1.45z"></path>
        </symbol>
        <symbol id="icon-tracking" viewBox="0 0 24 32">
            <path fill="#000" style="fill: var(--color1, #000)" d="M23.384 1.452v29.102c0 0.803-0.649 1.452-1.452 1.452h-20.481c-0.803-0.005-1.452-0.654-1.452-1.452v-29.102c0-0.803 0.649-1.452 1.452-1.452h20.486c0.798 0 1.447 0.649 1.447 1.452z"></path>
            <path fill="#000" style="fill: var(--color1, #000)" d="M21.895 2.677v26.646c0 0.735-0.57 1.329-1.276 1.329h-17.996c-0.706-0.005-1.276-0.599-1.276-1.329v-26.646c0-0.735 0.57-1.329 1.276-1.329h18.001c0.701 0 1.271 0.594 1.271 1.329z"></path>
            <path fill="#000" style="fill: var(--color1, #000)" d="M9.052 6.148v1.324c0 0.096-0.074 0.17-0.17 0.17h-1.622c-0.096 0-0.17 0.074-0.17 0.17v1.622c0 0.096-0.074 0.17-0.17 0.17h-1.324c-0.096 0-0.17-0.074-0.17-0.17v-1.622c0-0.096-0.074-0.17-0.17-0.17h-1.617c-0.096 0-0.17-0.074-0.17-0.17v-1.324c0-0.096 0.074-0.17 0.17-0.17h1.622c0.096 0 0.17-0.074 0.17-0.17v-1.622c0-0.096 0.074-0.17 0.17-0.17h1.324c0.096 0 0.17 0.074 0.17 0.17v1.622c0 0.096 0.074 0.17 0.17 0.17h1.617c0.096 0 0.17 0.074 0.17 0.17z"></path>
            <path fill="#000" style="fill: var(--color1, #000)" opacity="0.5" d="M19.731 13.365h-16.077c-0.106 0-0.191-0.085-0.191-0.191v-0.612c0-0.106 0.085-0.191 0.191-0.191h16.077c0.106 0 0.191 0.085 0.191 0.191v0.612c-0.005 0.106-0.085 0.191-0.191 0.191z"></path>
            <path fill="#000" style="fill: var(--color1, #000)" d="M19.731 5.744h-7.977c-0.106 0-0.191-0.085-0.191-0.191v-0.606c0-0.106 0.085-0.191 0.191-0.191h7.977c0.106 0 0.191 0.085 0.191 0.191v0.612c-0.005 0.101-0.085 0.186-0.191 0.186z"></path>
            <path fill="#000" style="fill: var(--color1, #000)" opacity="0.5" d="M17.369 8.328h-5.616c-0.106 0-0.191-0.085-0.191-0.191v-0.612c0-0.106 0.085-0.191 0.191-0.191h5.616c0.106 0 0.191 0.085 0.191 0.191v0.612c-0.005 0.106-0.085 0.191-0.191 0.191z"></path>
            <path fill="#000" style="fill: var(--color1, #000)" opacity="0.5" d="M19.731 16.269h-16.077c-0.106 0-0.191-0.085-0.191-0.191v-0.612c0-0.106 0.085-0.191 0.191-0.191h16.077c0.106 0 0.191 0.085 0.191 0.191v0.612c-0.005 0.106-0.085 0.191-0.191 0.191z"></path>
            <path fill="#000" style="fill: var(--color1, #000)" opacity="0.5" d="M19.731 19.172h-16.077c-0.106 0-0.191-0.085-0.191-0.191v-0.612c0-0.106 0.085-0.191 0.191-0.191h16.077c0.106 0 0.191 0.085 0.191 0.191v0.617c-0.005 0.101-0.085 0.186-0.191 0.186z"></path>
            <path fill="#000" style="fill: var(--color1, #000)" opacity="0.5" d="M19.731 22.081h-16.077c-0.106 0-0.191-0.085-0.191-0.191v-0.612c0-0.106 0.085-0.191 0.191-0.191h16.077c0.106 0 0.191 0.085 0.191 0.191v0.612c-0.005 0.106-0.085 0.191-0.191 0.191z"></path>
            <path fill="#000" style="fill: var(--color1, #000)" opacity="0.5" d="M19.731 24.985h-16.077c-0.106 0-0.191-0.085-0.191-0.191v-0.612c0-0.106 0.085-0.191 0.191-0.191h16.077c0.106 0 0.191 0.085 0.191 0.191v0.612c-0.005 0.106-0.085 0.191-0.191 0.191z"></path>
            <path fill="#000" style="fill: var(--color1, #000)" opacity="0.5" d="M19.731 27.889h-16.077c-0.106 0-0.191-0.085-0.191-0.191v-0.612c0-0.106 0.085-0.191 0.191-0.191h16.077c0.106 0 0.191 0.085 0.191 0.191v0.612c-0.005 0.106-0.085 0.191-0.191 0.191z"></path>
            <path fill="#1a6fb5" style="fill: var(--color2, #1a6fb5)" opacity="0.04000000000000001" d="M23.384 1.452v29.102c0 0.803-0.649 1.452-1.452 1.452h-20.481c-0.803-0.005-1.452-0.654-1.452-1.452v-0.505c12.493-5.159 18.311-24.943 19.624-30.048h2.308c0.803 0 1.452 0.649 1.452 1.452z"></path>
        </symbol>
        <symbol id="icon-doctor" viewBox="0 0 33 32">
            <path fill="#000" style="fill: var(--color1, #000)" d="M19.988 15.401l-16.858 16.089c-0.358 0.342-0.817 0.514-1.276 0.514-0.502 0-1.005-0.204-1.37-0.608-0.719-0.794-0.625-2.036 0.202-2.713l17.844-14.541 1.457 1.26z"></path>
            <path fill="#3a81d6" style="fill: var(--color3, #3a81d6)" opacity="0.8" d="M16.619 18.638l-3.177 3.030-0.293-3.114 1.739-1.417 1.731 1.5z"></path>
            <path fill="#000" style="fill: var(--color1, #000)" d="M32.703 10.634c0 5.874-4.728 10.638-10.554 10.638-3.672 0-6.907-1.89-8.797-4.76-1.11-1.683-1.757-3.704-1.757-5.878 0-5.874 4.728-10.634 10.554-10.634 2.631 0 5.035 0.969 6.882 2.571 2.248 1.952 3.672 4.84 3.672 8.063z"></path>
            <path fill="#fff" style="fill: var(--color4, #fff)" d="M22.149 18.919c4.541 0 8.223-3.709 8.223-8.285s-3.681-8.285-8.223-8.285-8.223 3.709-8.223 8.285c0 4.576 3.681 8.285 8.223 8.285z"></path>
            <path fill="#1a6fb5" style="fill: var(--color2, #1a6fb5)" opacity="0.03" d="M32.703 10.634c0 5.874-4.728 10.638-10.554 10.638-3.672 0-6.907-1.89-8.797-4.76 11.902-0.976 15.040-11.136 15.683-13.941 2.245 1.952 3.669 4.84 3.669 8.063z"></path>
            <path fill="#000" style="fill: var(--color1, #000)" d="M22.149 10.652c0.954 0 1.728-0.779 1.728-1.741s-0.773-1.741-1.728-1.741c-0.954 0-1.728 0.779-1.728 1.741s0.77 1.741 1.728 1.741zM22.149 11.523c-1.153 0-3.455 0.583-3.455 1.741v0.437c0 0.24 0.195 0.437 0.434 0.437h6.051c0.239 0 0.434-0.197 0.434-0.437v-0.437c-0.007-1.154-2.31-1.741-3.463-1.741z"></path>
        </symbol>
        <symbol id="icon-care" viewBox="0 0 36 32">
            <path fill="#000" style="fill: var(--color1, #000)" d="M29.545 6.227h-23.652v25.385h23.652v-25.385z"></path>
            <path fill="#000" style="fill: var(--color1, #000)" d="M5.795 6.227c0.029 0 0.057 0.012 0.098 0.024 0 8.445 0 16.891 0 25.348-1.831 0.143-3.377-0.318-4.604-1.501-0.869-0.84-1.289-1.827-1.289-2.944 0-3.956 0-7.907 0-11.863 0-1.509-0.004-3.018-0.004-4.527 0-1.823 0.983-3.148 2.789-4.045 0.93-0.457 1.962-0.526 3.010-0.493z"></path>
            <path fill="#fff" style="fill: var(--color4, #fff)" d="M25.414 6.223c1.056 0 1.162 0 2.214 0 0 8.474 0 16.919 0 25.381-7.181 0-12.613 0-19.819 0 0-8.458 0-16.903 0-25.373 1.052 0 1.28 0 2.353 0 0-0.106 0-0.188 0-0.265 0-0.909 0.004-1.823-0.004-2.732-0.008-0.636 0.163-1.191 0.661-1.623 0.351-0.302 0.754-0.457 1.211-0.457 1.415-0.004 2.826-0.004 4.241-0.004 2.377 0 4.759 0.004 7.136 0 0.624 0 1.142 0.204 1.55 0.677 0.326 0.379 0.449 0.824 0.449 1.321-0.004 0.958 0 1.917 0 2.875-0.004 0.053 0 0.114 0.008 0.2zM12.715 6.223c0.098 0 0.171 0 0.245 0 1.126 0 2.255 0 3.381 0 2.104 0 4.213 0 6.317 0.004 0.167 0 0.204-0.053 0.204-0.212-0.008-0.714 0-1.427 0-2.141 0-0.057-0.008-0.114-0.016-0.175-3.385 0-6.749 0-10.13 0 0 0.84 0 1.664 0 2.524z"></path>
            <path fill="#000" style="fill: var(--color1, #000)" d="M25.82 0h-16.487v6.231h16.487v-6.231z"></path>
            <path fill="#000" style="fill: var(--color1, #000)" d="M35.556 10.701c0-1.68-0.917-2.932-2.549-3.841-1.003-0.559-2.141-0.665-3.307-0.64-0.179 0.004-0.155 0.098-0.155 0.196 0 2.936 0 5.868 0 8.804 0 5.159 0 10.313-0.004 15.472 0 0.298 0 0.595 0 0.918 0.734 0.024 1.431 0.029 2.116-0.135 2.316-0.546 3.894-2.271 3.894-4.306 0.008-5.485 0.004-10.978 0.004-16.467z"></path>
            <path fill="#000" style="fill: var(--color1, #000)" d="M19.652 20.793c0 0.526 0 1.024 0 1.525 0 0.567 0 1.134 0 1.696 0 0.338-0.171 0.518-0.506 0.518-0.922 0.004-1.843 0.004-2.765 0-0.306 0-0.477-0.192-0.477-0.514 0-1.011 0-2.023 0-3.034 0-0.057 0-0.118 0-0.192-0.077 0-0.135 0-0.196 0-0.995 0-1.994 0-2.989 0-0.396 0-0.559-0.159-0.559-0.555 0-0.877 0-1.753 0-2.63 0-0.4 0.159-0.559 0.555-0.559 0.991 0 1.982 0 2.973 0 0.065 0 0.126 0 0.212 0 0-0.065 0-0.118 0-0.171 0-1.011 0-2.023 0-3.034 0-0.375 0.167-0.538 0.542-0.538 0.877 0 1.753 0 2.63 0 0.412 0 0.571 0.155 0.571 0.575 0.004 1.003 0 2.002 0 3.005 0 0.049 0 0.098 0 0.167 0.065 0 0.122 0 0.175 0 1.011 0 2.023 0 3.034 0.004 0.371 0 0.53 0.163 0.53 0.534 0 0.881 0 1.762 0 2.643 0 0.404-0.155 0.559-0.55 0.559-1.007 0-2.015 0-3.018 0.004-0.041-0.004-0.090-0.004-0.163-0.004z"></path>
        </symbol>
        <symbol id="icon-info" viewBox="0 0 23 32">
            <path fill="#000" style="fill: var(--color1, #000)" d="M22.808 30.467c0 0.835-0.676 1.514-1.511 1.514l-19.538 0.022c-0.665 0-1.229-0.427-1.433-1.022-0.053-0.154-0.081-0.316-0.081-0.486l-0.031-28.177c0-0.835 0.676-1.514 1.511-1.514l19.538-0.022c0.835 0 1.514 0.676 1.514 1.511l0.031 28.174z"></path>
            <path fill="#fff" style="fill: var(--color4, #fff)" d="M20.783 30.305l-18.514 0.020c-0.45 0-0.813-0.363-0.813-0.813l-0.028-26.222c0-0.45 0.363-0.813 0.813-0.813l18.511-0.020c0.45 0 0.813 0.363 0.813 0.813l0.028 26.222c0.003 0.447-0.36 0.813-0.81 0.813z"></path>
            <path fill="#000" style="fill: var(--color1, #000)" d="M18.183 4.619l-13.503 0.017c-0.447 0-0.813-0.363-0.813-0.81l-0.003-2.251c0-0.447 0.363-0.813 0.81-0.813l13.506-0.014c0.447 0 0.813 0.363 0.813 0.81l0.003 2.251c-0.003 0.447-0.366 0.81-0.813 0.81zM4.674 1.176c-0.218 0-0.397 0.179-0.397 0.397l0.003 2.251c0 0.218 0.179 0.397 0.397 0.397l13.506-0.014c0.218 0 0.397-0.179 0.397-0.397l-0.003-2.251c0-0.218-0.179-0.397-0.397-0.397l-13.506 0.014z"></path>
            <path fill="#000" style="fill: var(--color1, #000)" d="M17.8 1.723l-12.61 0.014c-0.14 0-0.251-0.112-0.251-0.251v-1.22c0-0.14 0.112-0.251 0.251-0.251l12.607-0.014c0.14 0 0.251 0.112 0.251 0.251v1.22c0.003 0.14-0.109 0.251-0.249 0.251z"></path>
            <path fill="#58d6f4" style="fill: var(--color5, #58d6f4)" d="M5.202 1.737l12.587-0.014c0.145 0 0.263-0.117 0.263-0.263v-0.598l-13.115 0.014v0.598c0 0.145 0.12 0.263 0.265 0.263z"></path>
            <path fill="#58d6f4" style="fill: var(--color5, #58d6f4)" d="M9.626 27.356l-1.089-6.591-0.883 2.868-2.525 0.003c-0.154 0-0.277-0.123-0.277-0.276s0.123-0.276 0.277-0.276l2.12-0.003 1.455-4.723 1.089 6.608 1.413-4.538 0.751 2.15 1.692-4.103 1.645 6.507 0.62-2.070 1.815-0.003c0.154 0 0.276 0.123 0.276 0.276s-0.123 0.276-0.276 0.276l-1.405 0.003-1.075 3.589-1.726-6.826-1.611 3.902-0.679-1.941-1.609 5.167z"></path>
            <path fill="#000" style="fill: var(--color1, #000)" d="M7.755 14.648l-3.55 0.003c-0.572 0-1.042-0.466-1.042-1.039l-0.006-4.963c0-0.573 0.466-1.042 1.039-1.042l3.55-0.003c0.573 0 1.042 0.466 1.042 1.039l0.006 4.963c0 0.573-0.466 1.039-1.039 1.042zM4.194 7.909c-0.408 0-0.737 0.332-0.737 0.74l0.006 4.963c0 0.408 0.332 0.737 0.74 0.737l3.55-0.003c0.408 0 0.737-0.332 0.737-0.74l-0.006-4.963c0-0.408-0.332-0.737-0.74-0.737l-3.55 0.003z"></path>
            <path fill="#000" style="fill: var(--color1, #000)" d="M5.976 13.696c1.678-0.003 2.201-0.972 2.201-0.972-0.075-0.095-0.17-0.179-0.299-0.263-0.441-0.288-0.796-0.411-0.944-0.533-0.151-0.12-0.235-0.296-0.235-0.296l-0.092 0.056c0 0-0.056-0.193-0.025-0.486 0 0 0.131-0.034 0.229-0.478 0.156 0.031 0.341-0.366 0.254-0.511-0.056-0.095-0.123-0.087-0.17-0.064 0.047-0.198 0.263-1.296-0.922-1.296s-0.969 1.098-0.919 1.296c-0.048-0.022-0.114-0.031-0.17 0.064-0.087 0.145 0.101 0.542 0.257 0.511 0.098 0.444 0.232 0.475 0.232 0.475 0.034 0.29-0.025 0.486-0.025 0.486l-0.092-0.056c0 0-0.084 0.173-0.235 0.296s-0.503 0.249-0.944 0.536c-0.128 0.084-0.226 0.168-0.299 0.263-0.003 0.006 0.522 0.975 2.198 0.972z"></path>
            <path fill="#000" style="fill: var(--color1, #000)" d="M17.029 9.188l-6.834 0.008c-0.128 0-0.232-0.103-0.232-0.232v-0.039c0-0.128 0.103-0.232 0.232-0.232l6.834-0.008c0.128 0 0.232 0.103 0.232 0.232v0.039c0 0.128-0.106 0.232-0.232 0.232z"></path>
            <path fill="#000" style="fill: var(--color1, #000)" d="M14.516 10.49l-4.32 0.006c-0.128 0-0.232-0.103-0.232-0.232v-0.039c0-0.128 0.103-0.232 0.232-0.232l4.32-0.006c0.128 0 0.232 0.103 0.232 0.232v0.039c0 0.128-0.103 0.232-0.232 0.232z"></path>
            <path fill="#000" style="fill: var(--color1, #000)" opacity="0.6" d="M19.387 12.037l-9.188 0.011c-0.128 0-0.232-0.103-0.232-0.232v-0.039c0-0.128 0.103-0.232 0.232-0.232l9.188-0.011c0.128 0 0.232 0.103 0.232 0.232v0.039c-0.003 0.128-0.106 0.232-0.232 0.232z"></path>
            <path fill="#000" style="fill: var(--color1, #000)" opacity="0.6" d="M19.188 16.385l-15.327 0.017c-0.131 0-0.24-0.106-0.24-0.24v-0.022c0-0.131 0.106-0.24 0.24-0.24l15.327-0.017c0.131 0 0.24 0.106 0.24 0.24v0.022c0 0.134-0.109 0.24-0.24 0.24z"></path>
            <path fill="#000" style="fill: var(--color1, #000)" opacity="0.6" d="M19.387 13.556l-9.188 0.011c-0.128 0-0.232-0.103-0.232-0.232v-0.039c0-0.128 0.103-0.232 0.232-0.232l9.188-0.011c0.128 0 0.232 0.103 0.232 0.232v0.039c0 0.128-0.103 0.232-0.232 0.232z"></path>
        </symbol>
        <symbol id="icon-to-left" viewBox="0 0 49 32">
            <path fill="#458ff6" style="fill: var(--color6, #458ff6)" d="M44.953 13.074h-35.446l7.787-7.787c1.074-1.074 1.074-2.685 0-3.759s-2.685-1.074-3.759 0l-12.352 12.352c-1.074 1.074-1.074 2.685 0 3.759l12.352 12.352c1.074 1.074 2.685 1.074 3.759 0s1.074-2.685 0-3.759l-7.787-7.787h35.446c1.343 0 2.685-1.074 2.685-2.685s-1.343-2.685-2.685-2.685z"></path>
        </symbol>
        <symbol id="icon-to-right" viewBox="0 0 49 32">
            <path fill="#458ff6" style="fill: var(--color6, #458ff6)" d="M2.926 18.926h35.446l-7.787 7.787c-1.074 1.074-1.074 2.685 0 3.759s2.685 1.074 3.759 0l12.352-12.352c1.074-1.074 1.074-2.685 0-3.759l-12.352-12.352c-1.074-1.074-2.685-1.074-3.759 0s-1.074 2.685 0 3.759l7.787 7.787h-35.446c-1.343 0-2.685 1.074-2.685 2.685s1.343 2.685 2.685 2.685z"></path>
        </symbol>
        <symbol id="icon-ellipse" viewBox="0 0 32 32">
            <path fill="#5b9bf3" style="fill: var(--color7, #5b9bf3)" d="M32 16c0 8.837-7.163 16-16 16s-16-7.163-16-16c0-8.837 7.163-16 16-16s16 7.163 16 16z"></path>
        </symbol>
        <symbol id="icon-Rectangle-22x" viewBox="0 0 896 32">
            <path d="M16 0h864c8.837 0 16 7.163 16 16s-7.163 16-16 16h-864c-8.837 0-16-7.163-16-16s7.163-16 16-16z"></path>
        </symbol>
        <symbol id="icon-pharmacy" viewBox="0 0 23 32">
            <path fill="#000" style="fill: var(--color1, #000)" d="M23.288 9.969l-0.072 14.984-0.012 2.898c-0.012 2.303-2.201 4.161-4.894 4.149l-13.457-0.060c-2.688-0.018-4.864-1.894-4.852-4.203l0.084-17.882c0.006-1.864 1.449-3.439 3.421-3.962l0.006-0.962v-0.493l16.397 0.078-0.006 1.455c1.966 0.547 3.391 2.129 3.385 3.998z"></path>
            <path fill="#000" style="fill: var(--color1, #000)" d="M21.129 0.667v0.132l-0.012 1.563-0.012 1.533v0.186c0 0.289-0.241 0.523-0.529 0.523h-0.126l-3.331-0.024-0.806-0.012-4.215-0.030-0.794-0.012-8.472-0.060c-0.289 0-0.523-0.241-0.523-0.529v-0.138l0.024-3.091v-0.186c0-0.289 0.24-0.523 0.535-0.523h0.126l17.611 0.138c0.295 0.006 0.523 0.24 0.523 0.529z"></path>
            <path fill="#000" style="fill: var(--color1, #000)" d="M21.129 0.806l-0.012 1.557-0.012 1.533-0.716-0.006-1.822-0.012h-0.956l-2.694-0.018h-0.956l-2.694-0.018h-0.956l-2.7-0.018h-0.95l-2.7-0.018h-0.95l-0.704-0.006 0.024-3.091 1.672 0.006 3.65 0.024h0.872l2.778 0.018h0.872l2.778 0.018h0.872l2.778 0.018h0.872l1.654 0.012z"></path>
            <path fill="#f7f9fc" style="fill: var(--color8, #f7f9fc)" d="M23.27 13.133l-23.203-0.11-0.049 10.288 23.203 0.11 0.049-10.288z"></path>
            <path fill="#fbfcf7" style="fill: var(--color9, #fbfcf7)" d="M23.274 13.133l-23.203-0.11-0.009 1.852 23.203 0.11 0.009-1.852z"></path>
            <path fill="#000" style="fill: var(--color1, #000)" d="M9.115 17.16l-1.497-0.006 0.006-1.503-2.062-0.006-0.006 1.497-1.497-0.006-0.012 2.056 1.497 0.006-0.006 1.503 2.062 0.006 0.006-1.497 1.497 0.006 0.012-2.056z"></path>
            <path fill="#000" style="fill: var(--color1, #000)" d="M19.289 17.659l-7.42-0.036c-0.198 0-0.361-0.162-0.361-0.361v-0.168c0-0.198 0.162-0.361 0.361-0.361l7.42 0.036c0.198 0 0.361 0.162 0.361 0.361v0.168c0 0.198-0.162 0.361-0.361 0.361z"></path>
            <path fill="#000" style="fill: var(--color1, #000)" opacity="0.5" d="M19.283 19.865l-7.42-0.036c-0.198 0-0.361-0.162-0.361-0.361v-0.168c0-0.198 0.162-0.361 0.361-0.361l7.42 0.036c0.198 0 0.361 0.162 0.361 0.361v0.168c0 0.198-0.162 0.361-0.361 0.361z"></path>
            <path fill="#1a6fb5" style="fill: var(--color2, #1a6fb5)" opacity="0.08" d="M2.309 0.667v0.132l0.012 1.563 0.012 1.527v0.186c0 0.289 0.24 0.523 0.529 0.523h0.126l17.599-0.126c0.289 0 0.523-0.241 0.523-0.529v-0.138c-9.302 0.403-18.279-3.668-18.279-3.668-0.289 0.006-0.523 0.24-0.523 0.529z"></path>
        </symbol>
        <symbol id="icon-consultation" viewBox="0 0 23 32">
            <path fill="#000" style="fill: var(--color1, #000)" d="M21.885 0h-21.1c-0.434 0-0.785 0.346-0.785 0.775v30.453c0 0.428 0.351 0.775 0.785 0.775h21.1c0.434 0 0.785-0.346 0.785-0.775v-30.453c-0.003-0.428-0.353-0.775-0.785-0.775z"></path>
            <path fill="#fff" style="fill: var(--color4, #fff)" d="M20.5 1.38h-18.332c-0.421 0-0.764 0.339-0.764 0.757v25.178c0 0.418 0.343 0.754 0.764 0.754h18.332c0.424 0 0.764-0.339 0.764-0.754v-25.178c0-0.418-0.34-0.757-0.764-0.757z"></path>
            <path fill="#000" style="fill: var(--color1, #000)" d="M15.082 13.351h-7.494c-0.343 0-0.621-0.274-0.621-0.613v-7.402c0-0.339 0.278-0.613 0.621-0.613h7.494c0.343 0 0.621 0.275 0.621 0.613v7.399c0 0.339-0.278 0.616-0.621 0.616z"></path>
            <path fill="#fff" style="fill: var(--color4, #fff)" d="M11.335 31.174c0.637 0 1.154-0.51 1.154-1.139s-0.517-1.139-1.154-1.139c-0.637 0-1.154 0.51-1.154 1.139s0.517 1.139 1.154 1.139z"></path>
            <path fill="#000" style="fill: var(--color1, #000)" d="M17.865 17.184h-13.063c-0.33 0-0.6-0.267-0.6-0.593s0.27-0.593 0.6-0.593h13.060c0.33 0 0.6 0.267 0.6 0.593s-0.268 0.593-0.598 0.593z"></path>
            <path fill="#000" style="fill: var(--color1, #000)" opacity="0.6" d="M15.653 20.468h-11.070c-0.21 0-0.379-0.169-0.379-0.375v-0.041c0-0.208 0.172-0.375 0.379-0.375h11.070c0.21 0 0.379 0.169 0.379 0.375v0.041c0.003 0.205-0.169 0.375-0.379 0.375z"></path>
            <path fill="#000" style="fill: var(--color1, #000)" opacity="0.3" d="M13.546 22.554h-8.999c-0.19 0-0.346-0.154-0.346-0.341v-0.113c0-0.187 0.156-0.341 0.346-0.341h8.996c0.19 0 0.346 0.154 0.346 0.341v0.113c0 0.187-0.156 0.341-0.343 0.341z"></path>
            <path fill="#000" style="fill: var(--color1, #000)" opacity="0.6" d="M14.679 24.486h-10.111c-0.2 0-0.364-0.162-0.364-0.359v-0.072c0-0.198 0.164-0.359 0.364-0.359h10.111c0.2 0 0.364 0.162 0.364 0.359v0.072c0 0.195-0.164 0.359-0.364 0.359z"></path>
            <path fill="#fff" style="fill: var(--color4, #fff)" d="M11.357 8.799c0.75 0 1.359-0.609 1.359-1.359s-0.608-1.359-1.359-1.359c-0.75 0-1.359 0.609-1.359 1.359s0.605 1.359 1.359 1.359zM11.357 9.478c-0.907 0-2.717 0.455-2.717 1.359v0.341c0 0.188 0.153 0.341 0.341 0.341h4.758c0.188 0 0.341-0.154 0.341-0.341v-0.341c-0.006-0.901-1.816-1.359-2.723-1.359z"></path>
        </symbol>
        <symbol id="icon-caplya" viewBox="0 0 22 32">
            <path d="M33.778 19.934c-2.005 2.411-6.139-0.555-11.998 0.917-5.075 1.275-5.299 4.363-9.378 4.302-2.98-0.044-6.264-1.689-8.115-4.644-2.041-3.258-1.403-6.637-1.221-7.457 0.813-3.68 3.428-5.671 4.351-6.351 3.803-2.802 8.151-2.425 10.236-2.245 7.835 0.679 16.328 6.069 16.838 12.126 0.068 0.793 0.191 2.264-0.714 3.353z"></path>
        </symbol>
    </defs>
</svg>
