<svg aria-hidden="true" style="position:absolute;width:0;height:0"
    xmlns="http://www.w3.org/2000/svg" overflow="hidden">
    <defs>
        <symbol id="icon-tracking" viewBox="0 0 24 32">
            <path fill="var(--color1, #000)" d="M23.384 1.452v29.102a1.45 1.45 0 01-1.452 1.452H1.451a1.457 1.457 0 01-1.452-1.452V1.452A1.45 1.45 0 011.451 0h20.486a1.45 1.45 0 011.447 1.452z"/>
            <path fill="var(--color1, #000)" d="M21.895 2.677v26.646c0 .735-.57 1.329-1.276 1.329H2.623c-.706-.005-1.276-.599-1.276-1.329V2.677c0-.735.57-1.329 1.276-1.329h18.001c.701 0 1.271.594 1.271 1.329z"/>
            <path fill="var(--color1, #000)" d="M9.052 6.148v1.324c0 .096-.074.17-.17.17H7.26a.167.167 0 00-.17.17v1.622c0 .096-.074.17-.17.17H5.596a.167.167 0 01-.17-.17V7.812a.167.167 0 00-.17-.17H3.639a.167.167 0 01-.17-.17V6.148c0-.096.074-.17.17-.17h1.622c.096 0 .17-.074.17-.17V4.186c0-.096.074-.17.17-.17h1.324c.096 0 .17.074.17.17v1.622c0 .096.074.17.17.17h1.617c.096 0 .17.074.17.17z"/>
            <path fill="var(--color1, #000)" opacity=".5" d="M19.731 13.365H3.654a.19.19 0 01-.191-.191v-.612a.19.19 0 01.191-.191h16.077a.19.19 0 01.191.191v.612a.194.194 0 01-.191.191z"/>
            <path fill="var(--color1, #000)" d="M19.731 5.744h-7.977a.19.19 0 01-.191-.191v-.606a.19.19 0 01.191-.191h7.977a.19.19 0 01.191.191v.612a.193.193 0 01-.191.186z"/>
            <path fill="var(--color1, #000)" opacity=".5" d="M17.369 8.328h-5.616a.19.19 0 01-.191-.191v-.612a.19.19 0 01.191-.191h5.616a.19.19 0 01.191.191v.612a.194.194 0 01-.191.191zM19.731 16.269H3.654a.19.19 0 01-.191-.191v-.612a.19.19 0 01.191-.191h16.077a.19.19 0 01.191.191v.612a.194.194 0 01-.191.191zM19.731 19.172H3.654a.19.19 0 01-.191-.191v-.612a.19.19 0 01.191-.191h16.077a.19.19 0 01.191.191v.617a.193.193 0 01-.191.186zM19.731 22.081H3.654a.19.19 0 01-.191-.191v-.612a.19.19 0 01.191-.191h16.077a.19.19 0 01.191.191v.612a.194.194 0 01-.191.191zM19.731 24.985H3.654a.19.19 0 01-.191-.191v-.612a.19.19 0 01.191-.191h16.077a.19.19 0 01.191.191v.612a.194.194 0 01-.191.191zM19.731 27.889H3.654a.19.19 0 01-.191-.191v-.612a.19.19 0 01.191-.191h16.077a.19.19 0 01.191.191v.612a.194.194 0 01-.191.191z"/>
            <path fill="var(--color2, #1a6fb5)" opacity=".04" d="M23.384 1.452v29.102a1.45 1.45 0 01-1.452 1.452H1.451a1.457 1.457 0 01-1.452-1.452v-.505C12.492 24.89 18.31 5.106 19.623.001h2.308a1.45 1.45 0 011.452 1.452z"/>
        </symbol>
        <symbol id="icon-doctor" viewBox="0 0 33 32">
            <path fill="var(--color1, #000)" d="M19.988 15.401L3.13 31.49a1.843 1.843 0 01-2.646-.094 1.882 1.882 0 01.202-2.713L18.53 14.142l1.457 1.26z"/>
            <path fill="var(--color3, #3a81d6)" opacity=".8" d="M16.619 18.638l-3.177 3.03-.293-3.114 1.739-1.417 1.731 1.5z"/>
            <path fill="var(--color1, #000)" d="M32.703 10.634c0 5.874-4.728 10.638-10.554 10.638-3.672 0-6.907-1.89-8.797-4.76a10.641 10.641 0 01-1.757-5.878C11.595 4.76 16.323 0 22.149 0c2.631 0 5.035.969 6.882 2.571a10.65 10.65 0 013.672 8.063z"/>
            <path fill="var(--color4, #fff)" d="M22.149 18.919c4.541 0 8.223-3.709 8.223-8.285s-3.681-8.285-8.223-8.285-8.223 3.709-8.223 8.285c0 4.576 3.681 8.285 8.223 8.285z"/>
            <path fill="var(--color2, #1a6fb5)" opacity=".03" d="M32.703 10.634c0 5.874-4.728 10.638-10.554 10.638-3.672 0-6.907-1.89-8.797-4.76 11.902-.976 15.04-11.136 15.683-13.941a10.657 10.657 0 013.669 8.063z"/>
            <path fill="var(--color1, #000)" d="M22.149 10.652c.954 0 1.728-.779 1.728-1.741s-.773-1.741-1.728-1.741c-.954 0-1.728.779-1.728 1.741s.77 1.741 1.728 1.741zm0 .871c-1.153 0-3.455.583-3.455 1.741v.437c0 .24.195.437.434.437h6.051a.437.437 0 00.434-.437v-.437c-.007-1.154-2.31-1.741-3.463-1.741z"/>
        </symbol>
        <symbol id="icon-care" viewBox="0 0 36 32">
            <path fill="var(--color1, #000)" d="M29.545 6.227H5.893v25.385h23.652V6.227zM5.795 6.227c.029 0 .057.012.098.024v25.348c-1.831.143-3.377-.318-4.604-1.501C.42 29.258 0 28.271 0 27.154V15.291c0-1.509-.004-3.018-.004-4.527 0-1.823.983-3.148 2.789-4.045.93-.457 1.962-.526 3.01-.493z"/>
            <path fill="var(--color4, #fff)" d="M25.414 6.223h2.214v25.381H7.809V6.231h2.353v-.265c0-.909.004-1.823-.004-2.732-.008-.636.163-1.191.661-1.623a1.805 1.805 0 011.211-.457c1.415-.004 2.826-.004 4.241-.004 2.377 0 4.759.004 7.136 0 .624 0 1.142.204 1.55.677.326.379.449.824.449 1.321-.004.958 0 1.917 0 2.875-.004.053 0 .114.008.2zm-12.699 0h3.626c2.104 0 4.213 0 6.317.004.167 0 .204-.053.204-.212-.008-.714 0-1.427 0-2.141 0-.057-.008-.114-.016-.175h-10.13v2.524z"/>
            <path fill="var(--color1, #000)" d="M25.82 0H9.333v6.231H25.82V0zM35.556 10.701c0-1.68-.917-2.932-2.549-3.841-1.003-.559-2.141-.665-3.307-.64-.179.004-.155.098-.155.196v8.804c0 5.159 0 10.313-.004 15.472v.918c.734.024 1.431.029 2.116-.135 2.316-.546 3.894-2.271 3.894-4.306.008-5.485.004-10.978.004-16.467zM19.652 20.793v3.221c0 .338-.171.518-.506.518-.922.004-1.843.004-2.765 0-.306 0-.477-.192-.477-.514v-3.034-.192h-3.185c-.396 0-.559-.159-.559-.555v-2.63c0-.4.159-.559.555-.559H15.9v-.171-3.034c0-.375.167-.538.542-.538h2.63c.412 0 .571.155.571.575.004 1.003 0 2.002 0 3.005v.167h.175c1.011 0 2.023 0 3.034.004.371 0 .53.163.53.534v2.643c0 .404-.155.559-.55.559-1.007 0-2.015 0-3.018.004-.041-.004-.09-.004-.163-.004z"/>
        </symbol>
        <symbol id="icon-info" viewBox="0 0 23 32">
            <path fill="var(--color1, #000)" d="M22.808 30.467c0 .835-.676 1.514-1.511 1.514l-19.538.022a1.514 1.514 0 01-1.514-1.508L.214 2.318C.214 1.483.89.804 1.725.804L21.263.782c.835 0 1.514.676 1.514 1.511l.031 28.174z"/>
            <path fill="var(--color4, #fff)" d="M20.783 30.305l-18.514.02a.812.812 0 01-.813-.813L1.428 3.29c0-.45.363-.813.813-.813l18.511-.02c.45 0 .813.363.813.813l.028 26.222a.81.81 0 01-.81.813z"/>
            <path fill="var(--color1, #000)" d="M18.183 4.619L4.68 4.636a.813.813 0 01-.813-.81l-.003-2.251c0-.447.363-.813.81-.813L18.18.748c.447 0 .813.363.813.81l.003 2.251a.815.815 0 01-.813.81zM4.674 1.176a.399.399 0 00-.397.397l.003 2.251c0 .218.179.397.397.397l13.506-.014a.399.399 0 00.397-.397l-.003-2.251a.399.399 0 00-.397-.397l-13.506.014z"/>
            <path fill="var(--color1, #000)" d="M17.8 1.723l-12.61.014a.25.25 0 01-.251-.251V.266A.25.25 0 015.19.015L17.797.001a.25.25 0 01.251.251v1.22a.246.246 0 01-.249.251z"/>
            <path fill="var(--color5, #58d6f4)" d="M5.202 1.737l12.587-.014a.263.263 0 00.263-.263V.862L4.937.876v.598c0 .145.12.263.265.263zM9.626 27.356l-1.089-6.591-.883 2.868-2.525.003a.275.275 0 110-.552l2.12-.003 1.455-4.723 1.089 6.608 1.413-4.538.751 2.15 1.692-4.103 1.645 6.507.62-2.07 1.815-.003c.154 0 .276.123.276.276s-.123.276-.276.276l-1.405.003-1.075 3.589-1.726-6.826-1.611 3.902-.679-1.941-1.609 5.167z"/>
            <path fill="var(--color1, #000)" d="M7.755 14.648l-3.55.003a1.043 1.043 0 01-1.042-1.039l-.006-4.963c0-.573.466-1.042 1.039-1.042l3.55-.003c.573 0 1.042.466 1.042 1.039l.006 4.963c0 .573-.466 1.039-1.039 1.042zM4.194 7.909a.738.738 0 00-.737.74l.006 4.963c0 .408.332.737.74.737l3.55-.003a.738.738 0 00.737-.74l-.006-4.963a.738.738 0 00-.74-.737l-3.55.003z"/>
            <path fill="var(--color1, #000)" d="M5.976 13.696c1.678-.003 2.201-.972 2.201-.972a1.207 1.207 0 00-.299-.263c-.441-.288-.796-.411-.944-.533-.151-.12-.235-.296-.235-.296l-.092.056s-.056-.193-.025-.486c0 0 .131-.034.229-.478.156.031.341-.366.254-.511-.056-.095-.123-.087-.17-.064.047-.198.263-1.296-.922-1.296s-.969 1.098-.919 1.296c-.048-.022-.114-.031-.17.064-.087.145.101.542.257.511.098.444.232.475.232.475.034.29-.025.486-.025.486l-.092-.056s-.084.173-.235.296-.503.249-.944.536a1.19 1.19 0 00-.299.263c-.003.006.522.975 2.198.972zM17.029 9.188l-6.834.008a.232.232 0 01-.232-.232v-.039c0-.128.103-.232.232-.232l6.834-.008c.128 0 .232.103.232.232v.039a.233.233 0 01-.232.232zM14.516 10.49l-4.32.006a.232.232 0 01-.232-.232v-.039c0-.128.103-.232.232-.232l4.32-.006c.128 0 .232.103.232.232v.039a.232.232 0 01-.232.232z"/>
            <path fill="var(--color1, #000)" opacity=".6" d="M19.387 12.037l-9.188.011a.232.232 0 01-.232-.232v-.039c0-.128.103-.232.232-.232l9.188-.011c.128 0 .232.103.232.232v.039a.235.235 0 01-.232.232zM19.188 16.385l-15.327.017a.24.24 0 01-.24-.24v-.022a.24.24 0 01.24-.24l15.327-.017a.24.24 0 01.24.24v.022a.24.24 0 01-.24.24zM19.387 13.556l-9.188.011a.232.232 0 01-.232-.232v-.039c0-.128.103-.232.232-.232l9.188-.011c.128 0 .232.103.232.232v.039a.232.232 0 01-.232.232z"/>
        </symbol>
        <symbol id="icon-to-left" viewBox="0 0 49 32">
            <path fill="var(--color6, #458ff6)" d="M44.953 13.074H9.507l7.787-7.787c1.074-1.074 1.074-2.685 0-3.759s-2.685-1.074-3.759 0L1.183 13.88c-1.074 1.074-1.074 2.685 0 3.759l12.352 12.352c1.074 1.074 2.685 1.074 3.759 0s1.074-2.685 0-3.759l-7.787-7.787h35.446c1.343 0 2.685-1.074 2.685-2.685s-1.343-2.685-2.685-2.685z"/>
        </symbol>
        <symbol id="icon-to-right" viewBox="0 0 49 32">
            <path fill="var(--color6, #458ff6)" d="M2.926 18.926h35.446l-7.787 7.787c-1.074 1.074-1.074 2.685 0 3.759s2.685 1.074 3.759 0L46.696 18.12c1.074-1.074 1.074-2.685 0-3.759L34.344 2.009c-1.074-1.074-2.685-1.074-3.759 0s-1.074 2.685 0 3.759l7.787 7.787H2.926c-1.343 0-2.685 1.074-2.685 2.685s1.343 2.685 2.685 2.685z"/>
        </symbol>
        <symbol id="icon-ellipse" viewBox="0 0 32 32">
            <path fill="var(--color7, #5b9bf3)" d="M32 16c0 8.837-7.163 16-16 16S0 24.837 0 16 7.163 0 16 0s16 7.163 16 16z"/>
        </symbol>
        <symbol id="icon-ellipse-filter" viewBox="0 0 32 32">
            <path d="M15.21 30.327c8.4 0 15.21-6.789 15.21-15.164S23.61-.001 15.21-.001C6.81-.001 0 6.788 0 15.163s6.81 15.164 15.21 15.164z"/>
        </symbol>
        <symbol id="icon-Rectangle-22x" viewBox="0 0 896 32">
            <path d="M16 0h864c8.837 0 16 7.163 16 16s-7.163 16-16 16H16C7.163 32 0 24.837 0 16S7.163 0 16 0z"/>
        </symbol>
        <symbol id="icon-pharmacy" viewBox="0 0 23 32">
            <path fill="var(--color1, #000)" d="M23.288 9.969l-.072 14.984-.012 2.898c-.012 2.303-2.201 4.161-4.894 4.149l-13.457-.06c-2.688-.018-4.864-1.894-4.852-4.203L.085 9.855c.006-1.864 1.449-3.439 3.421-3.962l.006-.962v-.493l16.397.078-.006 1.455c1.966.547 3.391 2.129 3.385 3.998z"/>
            <path fill="var(--color1, #000)" d="M21.129.667v.132l-.012 1.563-.012 1.533v.186a.529.529 0 01-.529.523h-.126l-3.331-.024-.806-.012-4.215-.03-.794-.012-8.472-.06a.529.529 0 01-.523-.529v-.138L2.333.708V.522a.53.53 0 01.535-.523h.126l17.611.138c.295.006.523.24.523.529z"/>
            <path fill="var(--color1, #000)" d="M21.129.806l-.012 1.557-.012 1.533-.716-.006-1.822-.012h-.956l-2.694-.018h-.956l-2.694-.018h-.956l-2.7-.018h-.95l-2.7-.018h-.95L2.307 3.8 2.331.709l1.672.006 3.65.024h.872l2.778.018h.872l2.778.018h.872l2.778.018h.872l1.654.012z"/>
            <path fill="var(--color8, #f7f9fc)" d="M23.27 13.133l-23.203-.11-.049 10.288 23.203.11.049-10.288z"/>
            <path fill="var(--color9, #fbfcf7)" d="M23.274 13.133l-23.203-.11-.009 1.852 23.203.11.009-1.852z"/>
            <path fill="var(--color1, #000)" d="M9.115 17.16l-1.497-.006.006-1.503-2.062-.006-.006 1.497-1.497-.006-.012 2.056 1.497.006-.006 1.503 2.062.006.006-1.497 1.497.006.012-2.056zM19.289 17.659l-7.42-.036a.362.362 0 01-.361-.361v-.168c0-.198.162-.361.361-.361l7.42.036c.198 0 .361.162.361.361v.168a.362.362 0 01-.361.361z"/>
            <path fill="var(--color1, #000)" opacity=".5" d="M19.283 19.865l-7.42-.036a.362.362 0 01-.361-.361V19.3c0-.198.162-.361.361-.361l7.42.036c.198 0 .361.162.361.361v.168a.362.362 0 01-.361.361z"/>
            <path fill="var(--color2, #1a6fb5)" opacity=".08" d="M2.309.667v.132l.012 1.563.012 1.527v.186c0 .289.24.523.529.523h.126l17.599-.126a.529.529 0 00.523-.529v-.138C11.808 4.208 2.831.137 2.831.137a.532.532 0 00-.523.529z"/>
        </symbol>
        <symbol id="icon-consultation" viewBox="0 0 23 32">
            <path fill="var(--color1, #000)" d="M21.885 0H.785A.78.78 0 000 .775v30.453a.78.78 0 00.785.775h21.1a.78.78 0 00.785-.775V.775A.783.783 0 0021.885 0z"/>
            <path fill="var(--color4, #fff)" d="M20.5 1.38H2.168a.761.761 0 00-.764.757v25.178c0 .418.343.754.764.754H20.5a.759.759 0 00.764-.754V2.137a.76.76 0 00-.764-.757z"/>
            <path fill="var(--color1, #000)" d="M15.082 13.351H7.588a.617.617 0 01-.621-.613V5.336c0-.339.278-.613.621-.613h7.494c.343 0 .621.275.621.613v7.399a.62.62 0 01-.621.616z"/>
            <path fill="var(--color4, #fff)" d="M11.335 31.174c.637 0 1.154-.51 1.154-1.139s-.517-1.139-1.154-1.139c-.637 0-1.154.51-1.154 1.139s.517 1.139 1.154 1.139z"/>
            <path fill="var(--color1, #000)" d="M17.865 17.184H4.802c-.33 0-.6-.267-.6-.593s.27-.593.6-.593h13.06c.33 0 .6.267.6.593s-.268.593-.598.593z"/>
            <path fill="var(--color1, #000)" opacity=".6" d="M15.653 20.468H4.583a.377.377 0 01-.379-.375v-.041c0-.208.172-.375.379-.375h11.07c.21 0 .379.169.379.375v.041a.376.376 0 01-.379.375z"/>
            <path fill="var(--color1, #000)" opacity=".3" d="M13.546 22.554H4.547a.345.345 0 01-.346-.341V22.1c0-.187.156-.341.346-.341h8.996c.19 0 .346.154.346.341v.113a.344.344 0 01-.343.341z"/>
            <path fill="var(--color1, #000)" opacity=".6" d="M14.679 24.486H4.568a.363.363 0 01-.364-.359v-.072c0-.198.164-.359.364-.359h10.111c.2 0 .364.162.364.359v.072a.364.364 0 01-.364.359z"/>
            <path fill="var(--color4, #fff)" d="M11.357 8.799a1.36 1.36 0 10-.001-2.72 1.36 1.36 0 00.001 2.72zm0 .679c-.907 0-2.717.455-2.717 1.359v.341c0 .188.153.341.341.341h4.758a.342.342 0 00.341-.341v-.341c-.006-.901-1.816-1.359-2.723-1.359z"/>
        </symbol>
    </defs>
</svg>